<?xml version="1.0" encoding="utf-8"?>
<!-- Generator: Adobe Illustrator 25.2.0, SVG Export Plug-In . SVG Version: 6.00 Build 0)  -->
<svg version="1.1" id="Layer_1" xmlns="http://www.w3.org/2000/svg" xmlns:xlink="http://www.w3.org/1999/xlink" x="0px" y="0px"
	 viewBox="0 0 252 72" style="enable-background:new 0 0 252 72;" xml:space="preserve">
<style type="text/css">
	.st0{fill:#C30000;}
	.st1{fill:#FFFFFF;}
</style>
<title>mol-logo-header</title>
<g>
	<g>
		<path class="st0" d="M59.9,30c0-2.6-2.1-4.6-4.6-4.6c-2.6,0-4.6,2.1-4.6,4.6c0,1.6,0.8,3,2.1,3.9v17.8l-6-4V30.3l-10.9,7.3
			l-10.9-7.3v14.3c-1.2,0.8-2.1,2.3-2.1,3.9c0,2.6,2.1,4.6,4.6,4.6s4.6-2.1,4.6-4.6c0-1.6-0.8-3-2.1-3.9v-5.8l5.8,3.9l5.8-3.9v10.4
			l16.3,10.9V33.8C59.1,33,59.9,31.6,59.9,30z"/>
		<path class="st0" d="M18.8,52.1l-0.1-31.8l17,11.3L53,20.1c0.8,0.4,1.7,0.7,2.7,0.6c2.6-0.3,4.4-2.5,4.2-5.1
			c-0.3-2.6-2.5-4.4-5.1-4.2c-2.6,0.3-4.4,2.5-4.2,5.1c0,0,0,0.1,0,0.1l-14.9,9.9L13.6,11.7v40.4c-1.2,0.8-2,2.2-2,3.8
			c0,2.6,2.1,4.6,4.6,4.6s4.6-2.1,4.6-4.6C20.9,54.4,20,52.9,18.8,52.1z"/>
	</g>
	<g>
		<path class="st1" d="M109.7,26.6l-5.2,3.5c-0.4,0.3-0.2,0.9,0.3,0.9c0,0,0,0,0.1,0c2.7,0.1,4.9,2.3,4.9,5c0,2.9-2.4,5.3-5.4,5.1
			c-2.7-0.2-4.7-2.5-4.7-5.2l0-5.2l0-7.1L86.9,32l-12.7-8.5v26.7l5.6-3.7V34l7.2,4.8l7.1-4.8v2c0,3.2,1.4,6.1,3.7,8
			c2,1.8,4.7,2.8,7.7,2.6c5.3-0.3,9.6-4.7,9.9-10C115.5,32.2,113.2,28.4,109.7,26.6z"/>
		<g>
			<polygon class="st1" points="124.4,25.3 118.7,25.3 118.7,46.5 134.3,46.5 134.3,41.4 124.4,41.4 			"/>
			<polygon class="st1" points="138.1,46.5 154.6,46.5 154.6,41.5 143.7,41.5 143.7,38.2 153.3,38.2 153.3,33.5 143.7,33.5 
				143.7,30.3 154.6,30.3 154.6,25.3 138.1,25.3 			"/>
			<path class="st1" d="M169.1,41.4c-2.9,0-4.9-2.4-4.9-5.5v-0.1c0-3,2-5.4,4.9-5.4c2,0,3.3,1,4.5,2.4l4.3-3.3
				c-1.8-2.5-4.5-4.2-8.7-4.2c-6.2,0-10.7,4.7-10.7,10.6V36c0,6.1,4.7,10.6,10.5,10.6c4.5,0,7.1-2,9-4.6l-4.3-3
				C172.5,40.4,171.2,41.4,169.1,41.4z"/>
			<path class="st1" d="M195,37c0,2.9-1.5,4.3-3.8,4.3c-2.3,0-3.8-1.4-3.8-4.4V25.3h-5.7V37c0,6.5,3.6,9.5,9.4,9.5
				c5.8,0,9.6-3,9.6-9.7V25.3H195V37z"/>
			<polygon class="st1" points="210.2,25.3 204.5,25.3 204.5,46.5 220.1,46.5 220.1,41.4 210.2,41.4 			"/>
			<polygon class="st1" points="240.4,30.3 240.4,25.3 223.9,25.3 223.9,46.5 240.4,46.5 240.4,41.5 229.5,41.5 229.5,38.2 
				239.1,38.2 239.1,33.5 229.5,33.5 229.5,30.3 			"/>
		</g>
	</g>
</g>
</svg>
