<?xml version="1.0" encoding="utf-8"?>
<!-- Generator: Adobe Illustrator 23.0.0, SVG Export Plug-In . SVG Version: 6.00 Build 0)  -->
<svg version="1.1" id="Layer_1" xmlns="http://www.w3.org/2000/svg" xmlns:xlink="http://www.w3.org/1999/xlink" x="0px" y="0px"
	 viewBox="0 0 50 50" style="enable-background:new 0 0 50 50;" xml:space="preserve">
<style type="text/css">
	.st0{fill:#C30000;}
	.st1{fill:#FFFFFF;}
</style>
<g>
	<path class="st0" d="M50,47.4c0,1.4-1.2,2.6-2.6,2.6H2.6C1.2,50,0,48.8,0,47.4V2.6C0,1.2,1.2,0,2.6,0h44.9C48.8,0,50,1.2,50,2.6
		V47.4z"/>
</g>
<path class="st1" d="M42.2,32.8c-1.8-1.2-4-1.2-5.7-0.3c0,0-0.1,0-0.1,0.1c-0.8,0.5-1.8,0.5-2.7,0l-1.3-0.8
	c-0.7-0.4-1.2-1.2-1.1-2.1c0-0.2,0-0.4,0-0.6c0-2.5-1.5-4.7-3.7-5.7c-0.8-0.4-1.3-1.1-1.3-2v-1.5c0-1,0.5-1.9,1.4-2.4
	c0,0,0.1,0,0.1-0.1c1.7-1,2.8-2.9,2.6-5c-0.2-2.8-2.5-5-5.3-5.1c-3.1-0.1-5.6,2.4-5.6,5.4c0,2,1.1,3.7,2.6,4.7c0,0,0.1,0,0.1,0.1
	c0.8,0.5,1.4,1.3,1.4,2.4v1.6c0,0.8-0.5,1.6-1.3,1.9c-2.2,1-3.7,3.2-3.7,5.8c0,0.2,0,0.4,0,0.6c0.1,0.9-0.3,1.7-1.1,2.1l-1.3,0.8
	c-0.9,0.5-1.9,0.5-2.7,0c0,0-0.1,0-0.1-0.1c-1.7-1-3.9-0.9-5.7,0.3c-2.2,1.5-3,4.5-1.8,6.9c1.4,2.9,4.9,3.9,7.6,2.3
	c1.7-1,2.7-2.8,2.7-4.6v-0.1c0-0.9,0.5-1.9,1.4-2.4l1.3-0.8c0.7-0.4,1.7-0.4,2.4,0.1c1,0.7,2.3,1.2,3.7,1.2c1.4,0,2.6-0.4,3.7-1.2
	c0.7-0.5,1.6-0.5,2.4-0.1l1.3,0.8c0.9,0.5,1.4,1.4,1.4,2.4v0.1c0,1.8,1,3.6,2.7,4.6c2.7,1.6,6.2,0.5,7.6-2.3
	C45.2,37.2,44.5,34.3,42.2,32.8z"/>
</svg>
