<?xml version="1.0" encoding="utf-8"?>
<!-- Generator: Adobe Illustrator 26.3.1, SVG Export Plug-In . SVG Version: 6.00 Build 0)  -->
<svg version="1.1" id="Layer_1" xmlns="http://www.w3.org/2000/svg" xmlns:xlink="http://www.w3.org/1999/xlink" x="0px" y="0px"
	 viewBox="0 0 144 144" style="enable-background:new 0 0 144 144;" xml:space="preserve">
<style type="text/css">
	.st0{fill:#C30000;}
</style>
<g>
	<path class="st0" d="M127.39,96.95c-5.73-3.9-12.81-3.94-18.37-0.87c-0.09,0.06-0.19,0.11-0.28,0.16c-2.62,1.5-5.94,1.62-8.74,0
		l-4.29-2.47c-2.38-1.37-3.72-4.01-3.47-6.75c0.06-0.62,0.09-1.25,0.09-1.88c0-8.17-4.82-15.22-11.78-18.44
		c-2.53-1.17-4.17-3.67-4.17-6.46v-4.9c0-3.24,1.76-6.06,4.37-7.57c0.09-0.05,0.19-0.11,0.28-0.16c5.39-3.25,8.89-9.33,8.44-16.19
		c-0.59-8.92-7.97-16.04-16.91-16.32c-9.93-0.31-18.08,7.64-18.08,17.5c0,6.37,3.4,11.94,8.48,15c0.1,0.05,0.19,0.11,0.28,0.16
		c2.61,1.52,4.37,4.33,4.37,7.57v5.04c0,2.7-1.58,5.13-4.03,6.25c-7.03,3.2-11.91,10.28-11.91,18.5c0,0.64,0.03,1.27,0.09,1.89
		c0.25,2.73-1.09,5.36-3.46,6.74l-4.29,2.48c-2.8,1.62-6.13,1.5-8.74,0c-0.09-0.05-0.19-0.11-0.28-0.16
		c-5.56-3.07-12.63-3.03-18.37,0.87c-7.12,4.85-9.64,14.37-5.86,22.11c4.51,9.22,15.77,12.55,24.51,7.51
		c5.51-3.18,8.64-8.91,8.75-14.84c0-0.11,0-0.22,0-0.33c0.01-3.02,1.57-5.95,4.37-7.57l4.22-2.44c2.39-1.38,5.38-1.28,7.62,0.32
		c3.32,2.36,7.38,3.75,11.77,3.75c4.39,0,8.45-1.39,11.77-3.76c2.25-1.6,5.23-1.7,7.62-0.32l4.22,2.44c2.8,1.62,4.36,4.55,4.37,7.57
		c0,0.11,0,0.22,0,0.33c0.11,5.93,3.24,11.66,8.75,14.84c8.73,5.04,20,1.71,24.51-7.51C137.03,111.31,134.51,101.8,127.39,96.95z"/>
</g>
</svg>
